<svg width="176" height="217" viewBox="0 0 176 217" fill="none" xmlns="http://www.w3.org/2000/svg">
<path d="M17.4481 201.466C16.0243 204.29 14.2935 205.772 11.9763 205.772C8.17959 205.772 5.41578 202.361 5.41578 197.244C5.41578 193.106 7.64917 189.303 11.6972 189.303C13.8468 189.303 15.9964 190.282 16.9177 193.581L17.9506 193.385C17.7552 191.652 17.5598 190.366 17.3085 188.828C16.5548 188.66 14.4889 188.073 12.2276 188.073C5.55537 188.073 1.17236 192.043 1.17236 197.803C1.17236 202.249 4.24326 207.086 11.6692 207.086C13.5676 207.086 16.136 206.527 16.8619 206.359C17.3364 205.38 18.0623 203.255 18.4252 201.885L17.4481 201.466Z" fill="#231D5E"/>
<path d="M26.8929 193.972C23.7941 193.972 20.2486 196.293 20.2486 200.795C20.2486 203.815 22.3982 207.002 26.7812 207.002C30.0475 207.002 33.258 204.765 33.258 200.264C33.258 196.936 30.8013 193.972 26.9208 193.972H26.8929ZM26.5299 195.063C28.2887 195.063 29.2658 197.216 29.2658 201.102C29.2658 205.241 28.1491 205.912 27.0883 205.912C25.3295 205.912 24.2407 203.2 24.2407 199.76C24.2407 196.573 25.3574 195.063 26.502 195.063H26.5299Z" fill="#231D5E"/>
<path d="M56.7818 206.667V205.772C55.3301 205.548 55.2184 205.464 55.2184 203.871V198.474C55.2184 195.622 53.8784 193.972 51.4496 193.972C50.64 193.972 49.8862 194.336 49.272 194.755C48.602 195.231 47.9599 195.65 47.262 196.153C46.7595 194.895 45.6428 193.972 44.0794 193.972C43.2698 193.972 42.5161 194.308 41.6506 194.839C41.0364 195.231 40.506 195.622 39.8918 196.042V193.917C38.1889 194.392 36.2905 194.783 34.9784 194.979V195.79C36.2905 195.986 36.4022 196.237 36.4022 197.859V203.731C36.4022 205.492 36.2626 205.576 34.6434 205.772V206.667H41.204V205.772C40.1431 205.604 39.9477 205.464 39.9477 203.871V197.048C40.7294 196.433 41.4273 196.153 42.0973 196.153C43.1302 196.153 44.0236 196.769 44.0236 198.782V203.871C44.0236 205.52 43.9119 205.604 42.5998 205.772V206.667H49.0487V205.772C47.7924 205.604 47.597 205.464 47.597 203.871V198.222C47.597 197.803 47.5691 197.412 47.5412 197.104C48.4345 196.349 49.1324 196.153 49.6908 196.153C50.5841 196.153 51.645 196.629 51.645 198.894V203.731C51.645 205.492 51.4496 205.604 50.2212 205.772V206.667H56.7818Z" fill="#231D5E"/>
<path d="M63.0341 195.734V193.693C61.1916 194.224 59.3491 194.727 57.8415 194.979V195.818C59.2095 196.014 59.4607 196.153 59.4607 197.691V210.246C59.4607 211.811 59.3491 212.035 57.5624 212.203V213.098H65.3234V212.203C63.1458 212.007 63.0341 211.811 63.0341 210.218V206.667C63.4529 206.834 64.0671 207.002 64.765 207.002C68.3384 206.163 71.5489 203.479 71.5489 199.369C71.5489 196.685 69.7901 193.972 66.4959 193.972C66.0213 193.972 65.5188 194.168 64.9604 194.504L63.0341 195.734ZM63.0341 196.741C63.5087 196.349 64.095 196.097 64.7929 196.097C66.1609 196.097 67.8638 197.356 67.8638 200.795C67.8638 203.703 66.803 205.604 65.2954 205.604C64.5975 205.604 63.5646 205.017 63.0341 204.514V196.741Z" fill="#231D5E"/>
<path d="M85.6098 205.408L85.3306 204.514C85.0236 204.653 84.7165 204.737 84.3815 204.737C83.9069 204.737 83.4881 204.402 83.4881 203.088V198.474C83.4881 196.908 83.2368 195.678 82.0364 194.783C81.2826 194.224 80.4451 193.972 79.3005 193.972C77.7092 194.252 75.7271 195.231 74.6663 195.958C74.0521 196.433 73.6892 196.796 73.6892 197.3C73.6892 198.027 74.6942 198.698 75.4479 198.698C76.0063 198.698 76.425 198.502 76.6205 197.747C76.8438 196.88 77.0951 196.209 77.4021 195.818C77.6534 195.482 77.9605 195.315 78.3513 195.315C79.3564 195.315 80.0264 196.293 80.0264 198.055V198.894C79.3843 199.453 77.2346 200.124 75.5875 200.739C74.1358 201.298 73.4658 201.969 73.4658 203.423C73.4658 205.157 74.8896 207.002 77.2346 207.002C77.793 207.002 79.1051 206.107 80.1659 205.408C80.2776 205.716 80.473 206.079 80.8639 206.415C81.2268 206.751 81.8131 207.002 82.5668 207.002L85.6098 205.408ZM80.0264 204.458C79.5797 204.793 79.2726 204.905 78.8538 204.905C78.2117 204.905 77.1788 204.318 77.1788 202.78C77.1788 201.801 77.6255 201.298 78.4909 200.851C79.0772 200.543 79.5239 200.264 80.0264 199.984V204.458Z" fill="#231D5E"/>
<path d="M95.0142 197.663C94.9584 197.104 94.6234 195.119 94.3442 194.476C93.7021 194.196 92.9483 193.972 91.6641 193.972C88.7328 194 86.9741 195.762 86.9741 197.943C86.9741 200.348 89.2353 201.438 90.5475 202.053C92.2504 202.892 92.6413 203.591 92.6413 204.402C92.6413 205.241 92.0271 205.912 91.1337 205.912C89.4308 205.912 88.1187 203.982 87.5045 202.221L86.6949 202.277C86.6949 203.647 86.9461 205.576 87.1136 206.052C87.6999 206.471 89.1516 207.002 90.6312 207.002C92.9763 207.002 95.6284 205.632 95.6284 202.864C95.6284 200.683 94.1209 199.704 91.8596 198.726C90.4358 198.083 89.7937 197.44 89.7937 196.573C89.7937 195.678 90.4916 195.063 91.2175 195.063C92.5296 195.063 93.4229 196.209 94.1767 197.915L95.0142 197.663Z" fill="#231D5E"/>
<path d="M105.674 197.663C105.618 197.104 105.283 195.119 105.004 194.476C104.362 194.196 103.608 193.972 102.324 193.972C99.3926 194 97.6339 195.762 97.6339 197.943C97.6339 200.348 99.8952 201.438 101.207 202.053C102.91 202.892 103.301 203.591 103.301 204.402C103.301 205.241 102.687 205.912 101.794 205.912C100.091 205.912 98.7785 203.982 98.1643 202.221L97.3547 202.277C97.3547 203.647 97.6059 205.576 97.7734 206.052C98.3597 206.471 99.8114 207.002 101.291 207.002C103.636 207.002 106.288 205.632 106.288 202.864C106.288 200.683 104.781 199.704 102.519 198.726C101.096 198.083 100.453 197.44 100.453 196.573C100.453 195.678 101.151 195.063 101.877 195.063C103.189 195.063 104.083 196.209 104.837 197.915L105.674 197.663Z" fill="#231D5E"/>
<path d="M132.603 197.971H124.228V198.949C127.159 199.201 127.299 199.425 127.299 201.382V204.038C127.299 204.877 127.076 205.353 126.657 205.604C126.294 205.856 125.652 205.94 125.094 205.94C120.515 205.94 118.449 201.522 118.449 197.3C118.449 192.267 121.353 189.247 124.703 189.247C127.327 189.247 129.421 190.561 130.091 193.693L131.152 193.469C130.928 191.288 130.789 189.806 130.705 188.856C129.7 188.632 127.55 188.073 125.261 188.073C119.37 188.073 114.206 191.4 114.206 197.775C114.206 203.395 118.365 207.086 124.842 207.086C127.104 207.086 129.532 206.471 131.207 206.079C131.068 205.353 131.04 204.458 131.04 203.423V201.214C131.04 199.341 131.207 199.229 132.603 198.949V197.971Z" fill="#231D5E"/>
<path d="M140.881 206.667V205.772C139.15 205.604 139.01 205.464 139.01 203.591V187.01C137.419 187.458 135.353 187.849 133.762 188.017V188.856C135.297 189.051 135.437 189.107 135.437 190.813V203.591C135.437 205.408 135.297 205.52 133.622 205.772V206.667H140.881Z" fill="#231D5E"/>
<path d="M154.203 205.408L153.924 204.514C153.617 204.653 153.31 204.737 152.975 204.737C152.5 204.737 152.082 204.402 152.082 203.088V198.474C152.082 196.908 151.83 195.678 150.63 194.783C149.876 194.224 149.039 193.972 147.894 193.972C146.303 194.252 144.321 195.231 143.26 195.958C142.646 196.433 142.283 196.796 142.283 197.3C142.283 198.027 143.288 198.698 144.041 198.698C144.6 198.698 145.019 198.502 145.214 197.747C145.437 196.88 145.689 196.209 145.996 195.818C146.247 195.482 146.554 195.315 146.945 195.315C147.95 195.315 148.62 196.293 148.62 198.055V198.894C147.978 199.453 145.828 200.124 144.181 200.739C142.729 201.298 142.059 201.969 142.059 203.423C142.059 205.157 143.483 207.002 145.828 207.002C146.387 207.002 147.699 206.107 148.759 205.408C148.871 205.716 149.067 206.079 149.457 206.415C149.82 206.751 150.407 207.002 151.16 207.002L154.203 205.408ZM148.62 204.458C148.173 204.793 147.866 204.905 147.447 204.905C146.805 204.905 145.772 204.318 145.772 202.78C145.772 201.801 146.219 201.298 147.084 200.851C147.671 200.543 148.117 200.264 148.62 199.984V204.458Z" fill="#231D5E"/>
<path d="M163.608 197.663C163.552 197.104 163.217 195.119 162.938 194.476C162.296 194.196 161.542 193.972 160.258 193.972C157.326 194 155.568 195.762 155.568 197.943C155.568 200.348 157.829 201.438 159.141 202.053C160.844 202.892 161.235 203.591 161.235 204.402C161.235 205.241 160.621 205.912 159.727 205.912C158.024 205.912 156.712 203.982 156.098 202.221L155.288 202.277C155.288 203.647 155.54 205.576 155.707 206.052C156.293 206.471 157.745 207.002 159.225 207.002C161.57 207.002 164.222 205.632 164.222 202.864C164.222 200.683 162.714 199.704 160.453 198.726C159.029 198.083 158.387 197.44 158.387 196.573C158.387 195.678 159.085 195.063 159.811 195.063C161.123 195.063 162.016 196.209 162.77 197.915L163.608 197.663Z" fill="#231D5E"/>
<path d="M174.268 197.663C174.212 197.104 173.877 195.119 173.598 194.476C172.955 194.196 172.202 193.972 170.918 193.972C167.986 194 166.227 195.762 166.227 197.943C166.227 200.348 168.489 201.438 169.801 202.053C171.504 202.892 171.895 203.591 171.895 204.402C171.895 205.241 171.28 205.912 170.387 205.912C168.684 205.912 167.372 203.982 166.758 202.221L165.948 202.277C165.948 203.647 166.199 205.576 166.367 206.052C166.953 206.471 168.405 207.002 169.885 207.002C172.23 207.002 174.882 205.632 174.882 202.864C174.882 200.683 173.374 199.704 171.113 198.726C169.689 198.083 169.047 197.44 169.047 196.573C169.047 195.678 169.745 195.063 170.471 195.063C171.783 195.063 172.676 196.209 173.43 197.915L174.268 197.663Z" fill="#231D5E"/>
<path fill-rule="evenodd" clip-rule="evenodd" d="M85.269 170.804C132.362 170.804 170.538 132.568 170.538 85.402C170.538 38.2358 132.362 0 85.269 0C38.1762 0 0 38.2358 0 85.402C0 132.568 38.1762 170.804 85.269 170.804ZM85.269 162.902C128.004 162.902 162.648 128.204 162.648 85.402C162.648 42.5999 128.004 7.90196 85.269 7.90196C42.5336 7.90196 7.88965 42.5999 7.88965 85.402C7.88965 128.204 42.5336 162.902 85.269 162.902Z" fill="#231D5E"/>
<g clip-path="url(#clip0)">
<path d="M85.2691 2.43137L98.0139 72.6372L168.111 85.4019L98.0139 98.1666L85.2691 168.373L72.5243 98.1666L2.42773 85.4019L72.5243 72.6372L85.2691 2.43137Z" fill="#211E5E"/>
</g>
<defs>
<clipPath id="clip0">
<rect width="157.186" height="157.431" fill="white" transform="translate(6.67578 6.68627)"/>
</clipPath>
</defs>
</svg>
