<svg width="35" height="35" viewBox="0 0 35 35" fill="none" xmlns="http://www.w3.org/2000/svg">
<path fill-rule="evenodd" clip-rule="evenodd" d="M17.5001 35C27.1651 35 35.0001 27.165 35.0001 17.5C35.0001 7.83502 27.1651 0 17.5001 0C7.83504 0 0 7.83502 0 17.5C0 27.165 7.83504 35 17.5001 35ZM17.5001 32.9C26.0053 32.9 32.9001 26.0052 32.9001 17.5C32.9001 8.99481 26.0053 2.1 17.5001 2.1C8.99485 2.1 2.10001 8.99481 2.10001 17.5C2.10001 26.0052 8.99485 32.9 17.5001 32.9ZM9.80003 14.0826V24.2607H13.0971V14.0826H9.80003ZM11.6653 9.1C10.5374 9.1 9.80003 9.8601 9.80003 10.8581C9.80003 11.8353 10.5156 12.6173 11.6225 12.6173H11.6436C12.7932 12.6173 13.5092 11.8353 13.5092 10.8581C13.4878 9.8601 12.7932 9.1 11.6653 9.1ZM21.4039 14.0826C19.6534 14.0826 18.8697 15.0705 18.4321 15.7635V14.3219H15.1346C15.178 15.277 15.1346 24.5 15.1346 24.5H18.4321V18.8157C18.4321 18.5115 18.4535 18.2081 18.5406 17.9903C18.7789 17.3826 19.3215 16.7534 20.2324 16.7534C21.4259 16.7534 21.903 17.6867 21.903 19.0544V24.4997H25.2L25.2001 18.6639C25.2001 15.5377 23.5735 14.0826 21.4039 14.0826Z" fill="#80ADC3"/>
</svg>
