<svg width="35" height="35" viewBox="0 0 35 35" fill="none" xmlns="http://www.w3.org/2000/svg">
<path fill-rule="evenodd" clip-rule="evenodd" d="M17.5001 35C27.1651 35 35.0001 27.165 35.0001 17.5C35.0001 7.83502 27.1651 0 17.5001 0C7.83504 0 0 7.83502 0 17.5C0 27.165 7.83504 35 17.5001 35ZM17.5001 32.9C26.0053 32.9 32.9001 26.0052 32.9001 17.5C32.9001 8.99481 26.0053 2.1 17.5001 2.1C8.99485 2.1 2.10001 8.99481 2.10001 17.5C2.10001 26.0052 8.99485 32.9 17.5001 32.9ZM17.2776 14.388L17.311 14.9633L16.7547 14.8928C14.7295 14.6228 12.9602 13.7071 11.458 12.1691L10.7236 11.406L10.5344 11.9696C10.1339 13.2257 10.3898 14.5524 11.2243 15.4446C11.6694 15.9377 11.5693 16.0081 10.8015 15.7146C10.5344 15.6207 10.3008 15.5503 10.2785 15.5855C10.2006 15.6677 10.4677 16.736 10.6791 17.1587C10.9684 17.7457 11.5582 18.3209 12.2036 18.6614L12.7488 18.9314L12.1034 18.9431C11.4803 18.9431 11.458 18.9549 11.5248 19.2014C11.7473 19.9645 12.6264 20.7746 13.6056 21.1268L14.2955 21.3733L13.6946 21.749C12.8044 22.2891 11.7585 22.5943 10.7125 22.6178C10.2117 22.6295 9.80003 22.6765 9.80003 22.7117C9.80003 22.8291 11.1576 23.4865 11.9476 23.7448C14.3178 24.5079 17.133 24.1792 19.2472 22.8761C20.7494 21.9486 22.2516 20.1054 22.9526 18.3209C23.3309 17.37 23.7093 15.6325 23.7093 14.7989C23.7093 14.2589 23.7427 14.1884 24.3658 13.5427C24.733 13.167 25.0779 12.7561 25.1447 12.6387C25.256 12.4157 25.2449 12.4157 24.6774 12.6153C23.7315 12.9675 23.598 12.9205 24.0653 12.3922C24.4103 12.0165 24.822 11.3356 24.822 11.136C24.822 11.1008 24.6551 11.1595 24.4659 11.2652C24.2656 11.3826 23.8205 11.5587 23.4867 11.6643L22.8858 11.8639L22.3406 11.4765C22.0402 11.2652 21.6173 11.0304 21.3948 10.9599C20.8273 10.7956 19.9593 10.819 19.4475 11.0069C18.0566 11.5352 17.1775 12.897 17.2776 14.388C17.2776 14.388 17.1775 12.897 17.2776 14.388Z" fill="#80ADC3"/>
</svg>
