<svg width="35" height="35" viewBox="0 0 35 35" fill="none" xmlns="http://www.w3.org/2000/svg">
<path fill-rule="evenodd" clip-rule="evenodd" d="M17.5001 35C27.1652 35 35.0002 27.165 35.0002 17.5C35.0002 7.83502 27.1652 0 17.5001 0C7.83507 0 0 7.83502 0 17.5C0 27.165 7.83507 35 17.5001 35ZM17.5001 32.9C26.0054 32.9 32.9002 26.0052 32.9002 17.5C32.9002 8.99481 26.0054 2.1 17.5001 2.1C8.99488 2.1 2.10001 8.99481 2.10001 17.5C2.10001 26.0052 8.99488 32.9 17.5001 32.9ZM18.7703 25.2V17.4991H21.0483L21.3501 14.8453H18.7703L18.7742 13.5171C18.7742 12.8249 18.8446 12.4541 19.9099 12.4541H21.334V9.8H19.0557C16.3191 9.8 15.3559 11.0874 15.3559 13.2523V14.8456H13.6501V17.4994H15.3559V25.2H18.7703Z" fill="#80ADC3"/>
</svg>
