<svg width="309" height="47" viewBox="0 0 309 47" fill="none" xmlns="http://www.w3.org/2000/svg">
<path d="M28.9518 26.0439C26.4192 31.1318 23.3403 33.8017 19.2185 33.8017C12.4647 33.8017 7.54834 27.6559 7.54834 18.4373C7.54834 10.9818 11.5211 4.13076 18.7219 4.13076C22.5457 4.13076 26.3695 5.89389 28.0083 11.8382L29.8457 11.4855C29.4981 8.36227 29.1505 6.04502 28.7036 3.27438C27.3627 2.97213 23.6879 1.91425 19.6654 1.91425C7.79664 1.91425 0 9.06752 0 19.4448C0 27.4544 5.46261 36.1693 18.6722 36.1693C22.0491 36.1693 26.6178 35.1618 27.909 34.8596C28.7532 33.0965 30.0444 29.268 30.69 26.7996L28.9518 26.0439Z" fill="#231D5E"/>
<path d="M45.7525 12.5434C40.2402 12.5434 33.9334 16.7245 33.9334 24.8349C33.9334 30.2755 37.7572 36.0182 45.5538 36.0182C51.3641 36.0182 57.075 31.9882 57.075 23.8778C57.075 17.8832 52.7049 12.5434 45.8022 12.5434H45.7525ZM45.1069 14.508C48.2355 14.508 49.9736 18.3869 49.9736 25.3891C49.9736 32.8446 47.9872 34.0536 46.1001 34.0536C42.9715 34.0536 41.0348 29.1672 41.0348 22.9711C41.0348 17.2283 43.0212 14.508 45.0572 14.508H45.1069Z" fill="#231D5E"/>
<path d="M98.9199 35.4137V33.8017C96.3375 33.3987 96.1389 33.2476 96.1389 30.3762V20.6538C96.1389 15.5155 93.7552 12.5434 89.4348 12.5434C87.9946 12.5434 86.6538 13.1983 85.5613 13.9539C84.3694 14.8103 83.2273 15.5659 81.9858 16.4727C81.0919 14.2058 79.1055 12.5434 76.3245 12.5434C74.8844 12.5434 73.5435 13.1479 72.0041 14.105C70.9115 14.8103 69.968 15.5155 68.8755 16.2712V12.4427C65.8462 13.299 62.4693 14.0043 60.1353 14.3569V15.8178C62.4693 16.1704 62.668 16.6238 62.668 19.5455V30.1243C62.668 33.298 62.4197 33.4491 59.5394 33.8017V35.4137H71.2095V33.8017C69.3224 33.4995 68.9748 33.2476 68.9748 30.3762V18.0847C70.3653 16.9764 71.6068 16.4727 72.7986 16.4727C74.6361 16.4727 76.2252 17.5809 76.2252 21.2079V30.3762C76.2252 33.3483 76.0265 33.4995 73.6925 33.8017V35.4137H85.164V33.8017C82.9293 33.4995 82.5817 33.2476 82.5817 30.3762V20.2004C82.5817 19.4448 82.532 18.7395 82.4824 18.1854C84.0715 16.8253 85.313 16.4727 86.3062 16.4727C87.8953 16.4727 89.7824 17.329 89.7824 21.4094V30.1243C89.7824 33.298 89.4348 33.4995 87.2497 33.8017V35.4137H98.9199Z" fill="#231D5E"/>
<path d="M110.042 15.717V12.0397C106.764 12.9968 103.487 13.9035 100.805 14.3569V15.8682C103.238 16.2208 103.685 16.4727 103.685 19.2433V41.8617C103.685 44.6827 103.487 45.0857 100.308 45.388V47H114.114V45.388C110.24 45.0354 110.042 44.6827 110.042 41.8114V35.4137C110.787 35.716 111.879 36.0182 113.121 36.0182C119.477 34.507 125.188 29.671 125.188 22.2658C125.188 17.4298 122.06 12.5434 116.2 12.5434C115.355 12.5434 114.462 12.896 113.468 13.5005L110.042 15.717ZM110.042 17.5305C110.886 16.8253 111.929 16.3719 113.17 16.3719C115.604 16.3719 118.633 18.6388 118.633 24.8349C118.633 30.074 116.746 33.4995 114.064 33.4995C112.823 33.4995 110.985 32.4416 110.042 31.5348V17.5305Z" fill="#231D5E"/>
<path d="M150.2 33.1468L149.704 31.5348C149.157 31.7867 148.611 31.9378 148.015 31.9378C147.171 31.9378 146.426 31.3333 146.426 28.9657V20.6538C146.426 17.8328 145.979 15.6163 143.844 14.0043C142.503 12.9968 141.013 12.5434 138.977 12.5434C136.146 13.0472 132.62 14.8103 130.733 16.12C129.641 16.9764 128.995 17.6313 128.995 18.538C128.995 19.8478 130.783 21.0568 132.124 21.0568C133.117 21.0568 133.862 20.7042 134.21 19.3441C134.607 17.7824 135.054 16.5734 135.6 15.8682C136.047 15.2637 136.593 14.9614 137.289 14.9614C139.076 14.9614 140.268 16.7245 140.268 19.8982V21.4094C139.126 22.4169 135.302 23.6259 132.372 24.7342C129.79 25.7417 128.598 26.9507 128.598 29.5702C128.598 32.6935 131.131 36.0182 135.302 36.0182C136.295 36.0182 138.629 34.4062 140.516 33.1468C140.715 33.701 141.063 34.3558 141.758 34.9603C142.403 35.5648 143.446 36.0182 144.787 36.0182L150.2 33.1468ZM140.268 31.4341C139.474 32.0386 138.927 32.2401 138.182 32.2401C137.04 32.2401 135.203 31.1822 135.203 28.4116C135.203 26.6484 135.997 25.7417 137.537 24.9357C138.58 24.3816 139.374 23.8778 140.268 23.3741V31.4341Z" fill="#231D5E"/>
<path d="M166.929 19.1929C166.83 18.1854 166.234 14.6088 165.737 13.4502C164.595 12.9464 163.254 12.5434 160.97 12.5434C155.755 12.5938 152.627 15.7674 152.627 19.6967C152.627 24.0289 156.649 25.9936 158.983 27.1018C162.013 28.6131 162.708 29.8724 162.708 31.3333C162.708 32.8446 161.615 34.0536 160.026 34.0536C156.997 34.0536 154.663 30.5777 153.57 27.4041L152.13 27.5048C152.13 29.9732 152.577 33.4491 152.875 34.3055C153.918 35.0611 156.5 36.0182 159.132 36.0182C163.304 36.0182 168.022 33.5498 168.022 28.5627C168.022 24.6334 165.34 22.8703 161.317 21.1072C158.785 19.9485 157.643 18.7899 157.643 17.2283C157.643 15.6163 158.884 14.508 160.175 14.508C162.509 14.508 164.098 16.5734 165.439 19.6463L166.929 19.1929Z" fill="#231D5E"/>
<path d="M185.891 19.1929C185.792 18.1854 185.196 14.6088 184.699 13.4502C183.557 12.9464 182.216 12.5434 179.932 12.5434C174.717 12.5938 171.589 15.7674 171.589 19.6967C171.589 24.0289 175.611 25.9936 177.945 27.1018C180.975 28.6131 181.67 29.8724 181.67 31.3333C181.67 32.8446 180.577 34.0536 178.988 34.0536C175.959 34.0536 173.625 30.5777 172.532 27.4041L171.092 27.5048C171.092 29.9732 171.539 33.4491 171.837 34.3055C172.88 35.0611 175.462 36.0182 178.094 36.0182C182.266 36.0182 186.984 33.5498 186.984 28.5627C186.984 24.6334 184.302 22.8703 180.279 21.1072C177.747 19.9485 176.605 18.7899 176.605 17.2283C176.605 15.6163 177.846 14.508 179.137 14.508C181.471 14.508 183.06 16.5734 184.401 19.6463L185.891 19.1929Z" fill="#231D5E"/>
<path d="M233.794 19.747H218.896V21.5102C224.11 21.9636 224.358 22.3666 224.358 25.8928V30.6785C224.358 32.1897 223.961 33.0461 223.216 33.4995C222.57 33.9528 221.428 34.104 220.435 34.104C212.291 34.104 208.616 26.1447 208.616 18.538C208.616 9.47052 213.781 4.03001 219.74 4.03001C224.408 4.03001 228.132 6.39764 229.324 12.0397L231.211 11.6367C230.814 7.70739 230.566 5.03751 230.417 3.32476C228.629 2.92176 224.805 1.91425 220.733 1.91425C210.255 1.91425 201.068 7.9089 201.068 19.3944C201.068 29.5198 208.467 36.1693 219.988 36.1693C224.011 36.1693 228.331 35.0611 231.311 34.3558C231.062 33.0461 231.013 31.4341 231.013 29.5702V25.5906C231.013 22.2154 231.311 22.0139 233.794 21.5102V19.747Z" fill="#231D5E"/>
<path d="M248.517 35.4137V33.8017C245.439 33.4995 245.19 33.2476 245.19 29.8725V0C242.36 0.806001 238.685 1.51125 235.854 1.8135V3.32476C238.585 3.67738 238.834 3.77813 238.834 6.85102V29.8725C238.834 33.1468 238.585 33.3483 235.606 33.8017V35.4137H248.517Z" fill="#231D5E"/>
<path d="M272.217 33.1468L271.72 31.5348C271.174 31.7867 270.627 31.9378 270.032 31.9378C269.187 31.9378 268.442 31.3333 268.442 28.9657V20.6538C268.442 17.8328 267.995 15.6163 265.86 14.0043C264.519 12.9968 263.029 12.5434 260.993 12.5434C258.163 13.0472 254.637 14.8103 252.75 16.12C251.657 16.9764 251.012 17.6313 251.012 18.538C251.012 19.8478 252.799 21.0568 254.14 21.0568C255.133 21.0568 255.878 20.7042 256.226 19.3441C256.623 17.7824 257.07 16.5734 257.617 15.8682C258.063 15.2637 258.61 14.9614 259.305 14.9614C261.093 14.9614 262.285 16.7245 262.285 19.8982V21.4094C261.142 22.4169 257.319 23.6259 254.389 24.7342C251.806 25.7417 250.614 26.9507 250.614 29.5702C250.614 32.6935 253.147 36.0182 257.319 36.0182C258.312 36.0182 260.646 34.4062 262.533 33.1468C262.732 33.701 263.079 34.3558 263.774 34.9603C264.42 35.5648 265.463 36.0182 266.804 36.0182L272.217 33.1468ZM262.285 31.4341C261.49 32.0386 260.944 32.2401 260.199 32.2401C259.057 32.2401 257.219 31.1822 257.219 28.4116C257.219 26.6484 258.014 25.7417 259.553 24.9357C260.596 24.3816 261.391 23.8778 262.285 23.3741V31.4341Z" fill="#231D5E"/>
<path d="M288.945 19.1929C288.846 18.1854 288.25 14.6088 287.754 13.4502C286.611 12.9464 285.271 12.5434 282.986 12.5434C277.772 12.5938 274.643 15.7674 274.643 19.6967C274.643 24.0289 278.666 25.9936 281 27.1018C284.029 28.6131 284.724 29.8724 284.724 31.3333C284.724 32.8446 283.632 34.0536 282.043 34.0536C279.013 34.0536 276.679 30.5777 275.587 27.4041L274.147 27.5048C274.147 29.9732 274.594 33.4491 274.892 34.3055C275.935 35.0611 278.517 36.0182 281.149 36.0182C285.32 36.0182 290.038 33.5498 290.038 28.5627C290.038 24.6334 287.356 22.8703 283.334 21.1072C280.801 19.9485 279.659 18.7899 279.659 17.2283C279.659 15.6163 280.901 14.508 282.192 14.508C284.526 14.508 286.115 16.5734 287.456 19.6463L288.945 19.1929Z" fill="#231D5E"/>
<path d="M307.907 19.1929C307.808 18.1854 307.212 14.6088 306.716 13.4502C305.573 12.9464 304.233 12.5434 301.948 12.5434C296.734 12.5938 293.605 15.7674 293.605 19.6967C293.605 24.0289 297.628 25.9936 299.962 27.1018C302.991 28.6131 303.686 29.8724 303.686 31.3333C303.686 32.8446 302.594 34.0536 301.005 34.0536C297.975 34.0536 295.641 30.5777 294.549 27.4041L293.109 27.5048C293.109 29.9732 293.556 33.4491 293.854 34.3055C294.897 35.0611 297.479 36.0182 300.111 36.0182C304.282 36.0182 309 33.5498 309 28.5627C309 24.6334 306.318 22.8703 302.296 21.1072C299.763 19.9485 298.621 18.7899 298.621 17.2283C298.621 15.6163 299.863 14.508 301.154 14.508C303.488 14.508 305.077 16.5734 306.418 19.6463L307.907 19.1929Z" fill="#231D5E"/>
</svg>
