<?xml version="1.0" standalone="no"?>
<!DOCTYPE svg PUBLIC "-//W3C//DTD SVG 20010904//EN"
 "http://www.w3.org/TR/2001/REC-SVG-20010904/DTD/svg10.dtd">
<svg version="1.0" xmlns="http://www.w3.org/2000/svg"
 width="512.000000pt" height="512.000000pt" viewBox="0 0 512.000000 512.000000"
 preserveAspectRatio="xMidYMid meet">
<metadata>
Created by potrace 1.11, written by Peter Selinger 2001-2013
</metadata>
<g transform="translate(0.000000,512.000000) scale(0.100000,-0.100000)"
fill="#000000" stroke="none">
<path d="M2375 4539 c-394 -41 -789 -209 -1090 -461 -643 -539 -892 -1402
-634 -2194 48 -145 153 -364 236 -489 505 -764 1460 -1097 2329 -814 145 48
364 153 489 236 764 505 1097 1460 814 2329 -48 145 -153 364 -236 489 -417
630 -1160 983 -1908 904z m180 -211 c-3 -18 -66 -363 -139 -766 -74 -403 -136
-735 -139 -739 -4 -3 -336 -65 -739 -139 -403 -73 -748 -136 -767 -139 l-34
-6 6 104 c19 309 124 618 303 892 216 331 569 603 944 728 169 57 361 93 503
96 l68 1 -6 -32z m366 2 c331 -64 602 -193 863 -411 241 -202 448 -507 550
-812 47 -139 84 -328 93 -462 l6 -106 -34 6 c-19 3 -364 66 -767 139 -403 74
-735 136 -739 139 -3 4 -65 336 -139 739 -73 403 -136 748 -139 767 l-6 34
104 -6 c57 -4 151 -16 208 -27z m-1383 -1984 c403 -74 735 -136 739 -139 3 -4
65 -336 139 -739 73 -403 136 -748 139 -767 l6 -34 -104 6 c-309 19 -618 124
-892 303 -332 217 -602 568 -729 947 -47 139 -84 328 -93 462 l-6 106 34 -6
c19 -3 364 -66 767 -139z m2889 40 c-19 -308 -124 -617 -303 -891 -217 -332
-568 -602 -947 -729 -139 -47 -328 -84 -462 -93 l-106 -6 6 34 c3 19 66 364
139 767 74 403 136 735 139 739 6 5 1491 280 1526 282 12 1 13 -17 8 -103z"/>
</g>
</svg>
