<?xml version="1.0" standalone="no"?>
<!DOCTYPE svg PUBLIC "-//W3C//DTD SVG 20010904//EN"
 "http://www.w3.org/TR/2001/REC-SVG-20010904/DTD/svg10.dtd">
<svg version="1.0" xmlns="http://www.w3.org/2000/svg"
 width="520.000000pt" height="520.000000pt" viewBox="0 0 520.000000 520.000000"
 preserveAspectRatio="xMidYMid meet">
<metadata>
Created by potrace 1.11, written by Peter Selinger 2001-2013
</metadata>
<g transform="translate(0.000000,520.000000) scale(0.100000,-0.100000)"
fill="#000000" stroke="none">
<path d="M645 4279 c33 -34 87 -90 120 -124 103 -106 576 -594 655 -675 41
-43 185 -191 320 -330 135 -139 281 -290 325 -335 44 -45 98 -101 119 -124
l40 -41 -86 -87 c-48 -49 -110 -113 -140 -144 -29 -31 -143 -149 -253 -264
-214 -222 -246 -255 -455 -472 -74 -76 -229 -238 -345 -358 -116 -120 -263
-273 -327 -339 l-117 -121 367 -3 367 -2 79 82 c70 74 276 289 463 484 37 39
147 154 243 254 96 101 230 240 296 309 67 69 156 162 198 206 l76 80 83 -86
c70 -73 146 -153 412 -434 99 -106 295 -313 326 -346 19 -20 99 -105 179 -189
141 -149 162 -171 283 -299 l59 -61 383 2 383 3 -136 141 c-76 78 -229 237
-342 355 -113 117 -266 276 -340 352 -74 77 -157 163 -185 192 -266 276 -501
520 -602 624 -71 74 -119 130 -115 137 6 10 208 221 502 524 36 37 160 165
275 285 116 120 233 242 260 270 28 29 147 152 265 275 118 123 234 243 258
266 23 24 42 45 42 48 0 3 -166 6 -368 6 l-369 0 -154 -162 c-85 -88 -170
-178 -189 -198 -112 -118 -352 -370 -390 -410 -25 -26 -115 -120 -201 -211
-86 -90 -191 -200 -233 -244 l-76 -80 -83 86 c-45 48 -149 157 -232 244 -82
87 -172 181 -200 210 -27 29 -111 116 -185 195 -74 78 -160 168 -190 199 -30
32 -122 128 -204 214 l-149 157 -386 0 -385 0 59 -61z"/>
<path d="M734 3215 c1 -13 5 -28 10 -32 4 -4 7 -3 6 2 -5 22 1 27 16 15 12
-11 15 -11 12 1 -2 8 3 13 10 11 8 -1 11 2 8 7 -3 5 -14 8 -24 6 -9 -1 -22 1
-28 6 -7 6 -10 1 -10 -16z"/>
<path d="M1073 3227 c0 -8 6 -14 14 -14 9 0 10 4 2 14 -6 7 -12 13 -14 13 -1
0 -2 -6 -2 -13z"/>
<path d="M1113 3225 c0 -8 10 -23 21 -32 21 -18 21 -18 4 2 -9 11 -17 24 -16
28 0 5 -2 11 -4 13 -3 2 -5 -3 -5 -11z"/>
<path d="M3763 3217 c-9 -19 -8 -24 3 -24 9 0 13 6 10 14 -3 8 -1 11 4 8 6 -3
7 1 4 9 -8 21 -9 20 -21 -7z"/>
<path d="M3799 3237 c0 -1 -2 -12 -4 -23 -4 -17 0 -21 17 -20 16 1 24 -7 29
-27 7 -24 5 -28 -9 -23 -13 5 -13 3 2 -9 11 -8 18 -15 15 -16 -2 0 -12 -2 -21
-4 -16 -3 -22 6 -20 26 1 4 -9 15 -21 25 -21 18 -21 18 -7 0 19 -24 22 -47 8
-64 -6 -7 -7 -12 -2 -11 21 4 26 -2 14 -16 -7 -8 -17 -12 -23 -8 -6 3 -7 1 -3
-6 6 -8 12 -9 20 -2 9 8 13 7 13 -4 0 -8 -6 -15 -14 -15 -7 0 -16 0 -20 0 -5
0 -8 17 -8 38 1 45 -8 52 -53 45 -25 -5 -33 -3 -28 5 4 7 2 12 -4 12 -7 0 -10
-6 -7 -14 3 -7 0 -19 -6 -25 -7 -7 -7 -11 -2 -9 12 4 15 -4 15 -33 0 -16 -5
-20 -19 -16 -19 5 -23 -15 -6 -30 4 -4 5 -3 2 3 -3 6 0 11 7 11 11 0 12 -4 3
-19 -7 -10 -13 -14 -15 -9 -2 6 -10 7 -19 4 -12 -5 -14 -3 -8 7 6 9 4 11 -4 5
-9 -5 -9 -11 -3 -17 14 -14 3 -38 -17 -38 -9 0 -12 3 -6 8 6 4 10 13 9 20 -1
6 -2 21 -3 32 -1 23 -31 28 -31 4 0 -8 -4 -12 -10 -9 -9 6 -14 -8 -11 -28 1
-5 -3 -5 -9 -2 -14 9 -62 -43 -54 -57 5 -7 1 -9 -9 -5 -19 7 -32 -8 -16 -19 8
-5 9 -3 4 6 -5 9 -4 11 4 6 15 -10 4 -27 -13 -20 -8 3 -16 1 -19 -3 -3 -5 52
-10 124 -11 83 -1 128 2 124 8 -4 6 -11 8 -16 4 -6 -3 -5 3 2 14 10 15 17 18
25 11 7 -6 11 -16 8 -23 -2 -6 4 -12 16 -13 11 -1 18 2 15 8 -4 5 3 6 17 0 13
-5 238 -9 501 -8 l477 0 0 177 0 177 -104 -1 c-57 -1 -102 -4 -99 -8 6 -10
-11 -10 -21 0 -12 11 -156 9 -156 -3 0 -5 -4 -4 -9 4 -6 9 -11 10 -15 2 -4 -6
-4 -15 -1 -21 4 -6 -8 -10 -30 -10 -20 0 -34 4 -30 9 3 5 0 13 -6 17 -7 4 -9
3 -5 -4 3 -6 2 -13 -4 -17 -5 -3 -10 3 -10 14 0 17 -6 20 -44 17 -25 -1 -51
-8 -59 -14 -8 -7 -18 -8 -22 -4 -5 4 -5 1 -1 -6 6 -10 11 -10 21 -2 10 8 15 8
21 -2 4 -7 4 -10 -1 -6 -4 4 -14 3 -22 -3 -7 -6 -13 -8 -13 -4 0 4 -8 1 -17
-6 -14 -12 -16 -12 -9 0 6 9 4 12 -5 9 -8 -3 -14 -19 -14 -38 0 -33 -2 -34
-36 -35 -28 -1 -36 2 -34 14 1 9 5 15 8 14 10 -4 10 -4 28 -8 10 -2 15 5 15
21 0 19 -3 21 -14 12 -25 -21 -51 -20 -47 2 2 11 -1 22 -6 25 -5 4 -6 11 -3
17 4 7 2 8 -5 4 -6 -4 -9 -12 -6 -17 4 -5 0 -9 -7 -9 -8 0 -14 -11 -14 -25 0
-26 11 -34 19 -12 3 6 4 2 4 -9 -1 -15 -6 -20 -16 -16 -9 3 -12 1 -8 -5 4 -7
0 -10 -10 -9 -13 2 -18 13 -19 34 -3 68 -4 72 -21 72 -14 0 -15 -2 -4 -9 16
-10 5 -17 -31 -19 -25 -2 -32 6 -30 28 1 5 -37 11 -39 7z m736 -17 c8 7 15 10
15 6 0 -3 0 -9 0 -13 0 -8 -50 -13 -63 -6 -4 3 -5 9 -1 14 4 6 11 6 20 -2 11
-9 17 -9 29 1z m-405 -55 c0 -7 -30 -13 -34 -7 -3 4 4 9 15 9 10 1 19 0 19 -2z
m-25 -34 c3 -5 2 -12 -3 -15 -5 -3 -9 1 -9 9 0 17 3 19 12 6z m-270 -33 c4 -3
2 -9 -3 -12 -5 -3 -15 1 -21 8 -10 11 -9 14 3 12 9 -1 18 -5 21 -8z m241 -81
c1 -10 -2 -15 -7 -11 -13 8 -11 -10 4 -25 6 -7 8 -12 2 -11 -5 2 -12 1 -15 0
-3 -1 -17 -3 -31 -4 -20 -2 -26 1 -24 13 2 9 4 21 4 26 1 7 4 7 9 0 10 -13 32
-17 32 -6 0 6 -5 13 -10 16 -15 9 -3 24 17 21 9 -2 17 -10 19 -19z m-351 -76
c3 -5 2 -12 -3 -15 -5 -3 -9 1 -9 9 0 17 3 19 12 6z"/>
<path d="M4046 3018 c3 -5 10 -6 15 -3 13 9 11 12 -6 12 -8 0 -12 -4 -9 -9z"/>
<path d="M4016 2979 c4 -8 30 -6 38 2 3 3 -5 5 -19 5 -13 0 -22 -3 -19 -7z"/>
<path d="M3864 3232 c3 -5 0 -13 -6 -15 -9 -4 -10 -6 -1 -6 17 -1 25 16 12 25
-7 4 -9 3 -5 -4z"/>
<path d="M4005 3231 c-4 -7 -2 -18 4 -25 6 -7 7 -17 3 -21 -4 -5 -1 -5 6 -1 7
4 9 13 5 19 -4 7 0 6 10 -2 14 -11 17 -11 17 0 0 11 2 11 10 -1 11 -16 11 -15
15 18 3 25 -5 28 -24 10 -11 -10 -13 -10 -7 0 4 6 2 12 -3 12 -6 0 -11 -6 -11
-12 0 -10 -3 -9 -9 1 -6 9 -10 10 -16 2z"/>
<path d="M476 3221 c-3 -4 4 -17 17 -27 22 -19 22 -19 4 2 -9 11 -14 24 -10
27 3 4 4 7 0 7 -3 0 -8 -4 -11 -9z"/>
<path d="M630 3215 c5 -7 6 -16 2 -21 -4 -5 -3 -6 2 -2 5 4 16 2 25 -4 12 -10
12 -7 -2 8 -9 11 -15 23 -12 26 3 2 -2 5 -10 5 -10 0 -12 -4 -5 -12z"/>
<path d="M673 3214 c16 -20 52 -30 41 -12 -4 5 -9 7 -12 4 -3 -3 -15 2 -26 11
-21 18 -21 18 -3 -3z"/>
<path d="M908 3219 c6 -9 8 -20 4 -25 -4 -5 -3 -6 2 -2 5 4 14 3 21 -2 8 -7
12 -5 12 5 0 8 -3 13 -5 10 -3 -3 -15 3 -26 12 -15 14 -18 14 -8 2z"/>
<path d="M1023 3216 c3 -7 0 -20 -6 -27 -10 -11 -9 -11 4 -1 9 6 20 8 25 4 4
-4 2 2 -6 12 -14 18 -13 19 3 13 11 -4 16 -3 12 3 -10 15 -38 12 -32 -4z"/>
<path d="M1153 3214 c16 -20 52 -30 41 -12 -4 5 -9 7 -12 4 -3 -3 -15 2 -26
11 -21 18 -21 18 -3 -3z"/>
<path d="M3934 3181 c0 -27 3 -48 6 -46 7 5 6 82 -1 90 -3 2 -5 -18 -5 -44z"/>
<path d="M1214 3206 c1 -8 5 -18 8 -22 4 -3 5 1 4 10 -1 8 -5 18 -8 22 -4 3
-5 -1 -4 -10z"/>
<path d="M1336 3212 c-3 -5 -4 -17 -2 -28 2 -10 -4 -24 -12 -30 -13 -9 -13
-12 2 -17 11 -5 15 -3 10 5 -4 7 -3 8 5 4 6 -4 9 -12 5 -17 -3 -5 -10 -7 -15
-3 -6 3 -8 -5 -5 -21 4 -20 1 -26 -12 -24 -29 2 -46 -1 -39 -8 4 -3 2 -12 -4
-20 -6 -7 -7 -13 -2 -13 13 0 13 -32 -1 -49 -9 -12 -8 -13 3 -6 10 5 12 4 7
-4 -8 -12 4 -19 44 -23 14 -2 31 -7 39 -12 10 -7 12 -5 6 5 -7 12 -5 12 6 1
12 -11 12 -14 -1 -22 -8 -5 -19 -5 -25 0 -8 7 -12 5 -12 -5 0 -7 5 -13 11 -12
5 1 10 -5 11 -13 0 -12 14 -15 60 -15 33 0 66 4 73 9 7 5 12 5 12 -1 0 -5 68
-9 150 -10 83 0 150 0 150 1 0 1 -26 27 -57 57 -31 30 -54 47 -51 39 4 -11 0
-16 -13 -17 -10 -1 -19 3 -19 8 0 6 5 7 10 4 12 -8 13 25 1 44 -5 7 -14 10
-20 7 -7 -5 -10 -2 -9 6 2 9 -8 13 -29 12 -18 0 -30 2 -28 5 3 2 -2 12 -10 21
-13 14 -13 17 0 17 8 0 12 -4 9 -8 -2 -4 6 -13 18 -19 19 -9 21 -9 7 2 -9 7
-14 18 -12 23 2 6 -6 16 -18 23 -12 8 -18 9 -15 4 8 -13 -18 -34 -29 -24 -5 4
-5 1 -1 -6 4 -7 13 -9 19 -6 7 4 9 4 5 -1 -4 -4 -3 -14 3 -21 8 -10 6 -12 -9
-9 -26 5 -39 -12 -37 -47 1 -15 -1 -25 -5 -23 -4 2 -7 -1 -7 -8 0 -8 13 -11
36 -9 26 2 32 1 21 -7 -8 -5 -17 -8 -21 -5 -4 2 -10 0 -14 -6 -4 -6 -11 -8
-16 -4 -5 3 -8 0 -7 -7 4 -15 -33 -18 -45 -4 -5 6 -6 2 -3 -8 3 -11 2 -16 -4
-12 -14 9 -12 58 3 74 10 11 9 12 -1 6 -10 -5 -13 0 -10 21 3 25 7 29 33 29
38 0 54 11 50 33 -2 9 -4 25 -4 35 -1 10 -9 17 -20 17 -22 0 -22 19 -1 46 14
18 13 18 -7 0 -13 -10 -20 -23 -17 -27 3 -5 -7 -14 -21 -19 -16 -6 -23 -14
-19 -22 4 -7 3 -8 -4 -4 -6 4 -8 14 -5 23 4 10 2 14 -5 9 -6 -3 -13 -2 -16 3
-4 5 -1 13 5 17 7 4 9 3 6 -2 -3 -6 3 -10 13 -11 11 -1 22 2 25 8 3 5 -1 6 -9
3 -9 -4 -16 -1 -16 6 0 7 -7 10 -15 7 -8 -4 -17 -2 -20 3 -4 6 0 10 7 10 9 0
9 3 -2 10 -10 6 -11 10 -2 10 6 0 12 5 12 11 0 8 -4 8 -14 0 -11 -10 -15 -37
-6 -48 2 -2 3 -11 4 -20 1 -10 5 -23 9 -30 4 -6 3 -14 -2 -18 -5 -3 -8 -14 -6
-25 3 -14 -2 -20 -16 -20 -10 0 -19 5 -19 11 0 5 5 7 12 3 7 -4 1 8 -12 26
-13 18 -19 30 -13 27 8 -5 11 3 9 25 -2 18 2 36 8 40 7 5 7 8 -2 8 -7 0 -10 5
-6 12 5 7 3 8 -6 3 -10 -6 -12 -4 -7 8 7 18 2 23 -7 9z m304 -207 c0 -2 -6 -8
-13 -14 -10 -8 -14 -7 -14 2 0 8 6 14 14 14 7 0 13 -1 13 -2z m-80 -95 c0 -4
-15 -7 -32 -7 -27 -1 -29 1 -13 7 11 5 16 9 12 9 -5 1 -5 6 -2 11 7 11 35 -5
35 -20z m-70 -4 c0 -3 -4 -8 -10 -11 -5 -3 -10 -1 -10 4 0 6 5 11 10 11 6 0
10 -2 10 -4z"/>
<path d="M575 3201 c-3 -5 -2 -12 3 -15 5 -3 9 1 9 9 0 17 -3 19 -12 6z"/>
<path d="M798 3198 c-9 -5 -6 -7 9 -5 12 2 25 6 28 8 8 9 -23 6 -37 -3z"/>
<path d="M846 3194 c-4 -9 -2 -22 4 -28 8 -8 9 -6 4 8 -6 15 -4 17 7 10 20
-12 40 -14 33 -3 -3 5 -9 7 -14 4 -5 -3 -13 2 -18 11 -8 15 -10 15 -16 -2z"/>
<path d="M1103 3193 c4 -6 -2 -18 -13 -28 -19 -17 -25 -14 -20 10 1 6 -2 6 -7
2 -4 -5 -8 -12 -8 -15 0 -4 -4 -13 -9 -21 -6 -9 -5 -12 1 -8 11 7 31 -11 31
-28 1 -5 -7 -19 -16 -30 -17 -20 -17 -20 5 -1 13 10 20 22 18 26 -8 12 33 43
46 34 8 -4 10 -3 5 5 -4 6 -14 10 -21 9 -8 -2 -13 1 -12 7 1 5 9 9 17 8 10 -2
11 0 2 3 -6 3 -10 10 -7 14 3 5 0 12 -6 16 -7 4 -9 3 -6 -3z m-8 -55 c4 -3 2
-9 -3 -12 -5 -3 -15 1 -21 8 -10 11 -9 14 3 12 9 -1 18 -5 21 -8z"/>
<path d="M1279 3187 c15 -19 1 -30 -18 -15 -15 12 -15 11 0 -7 23 -29 18 -50
-11 -50 -14 0 -25 -6 -25 -12 0 -7 -4 -12 -10 -10 -5 1 -9 5 -8 8 1 3 -5 6
-12 6 -12 0 -12 -3 -3 -15 19 -23 18 -41 -5 -57 -26 -18 -41 -19 -31 -2 6 9 4
9 -8 -1 -14 -11 -18 -10 -27 5 -6 10 -11 12 -11 6 0 -7 -5 -13 -11 -13 -5 0
-8 4 -5 8 3 5 -1 9 -9 9 -8 0 -15 -3 -16 -6 0 -3 -2 -14 -4 -24 -2 -10 3 -21
12 -24 12 -5 12 -7 1 -14 -11 -7 -11 -9 1 -9 10 0 11 -3 2 -14 -7 -9 -8 -17
-3 -20 6 -3 13 1 16 9 3 8 9 15 13 14 21 -4 22 3 4 23 -11 11 -18 24 -16 29 7
10 36 5 33 -7 -2 -5 -7 -8 -11 -6 -5 1 -6 -2 -2 -8 3 -6 11 -7 17 -4 7 4 8 2
4 -5 -5 -8 0 -10 18 -7 29 5 44 -10 27 -27 -9 -9 -11 -8 -6 4 4 10 0 16 -8 16
-9 0 -14 -10 -13 -28 0 -21 4 -25 13 -17 10 8 13 5 13 -13 0 -22 4 -24 45 -23
52 1 64 9 46 27 -11 9 -14 9 -18 0 -3 -7 -9 -13 -14 -13 -6 0 -7 5 -3 11 10
17 13 70 3 64 -4 -3 -6 -14 -4 -25 4 -21 -18 -50 -38 -50 -7 0 -6 4 3 10 16
10 22 60 7 57 -17 -3 -16 62 1 75 13 11 15 10 8 -7 -4 -11 -3 -16 1 -11 4 4 8
17 8 29 0 12 4 23 10 25 5 1 10 -14 10 -33 0 -31 -5 -39 -26 -37 -3 1 -6 -5
-6 -13 0 -11 5 -11 23 2 14 9 21 22 19 33 -2 11 1 22 6 25 5 4 7 10 4 15 -6
10 29 33 37 25 3 -3 5 2 5 10 0 8 -4 12 -9 9 -10 -7 -6 26 7 46 16 26 13 36
-12 38 -20 2 -23 -1 -14 -11z m25 -6 c3 -5 -2 -15 -12 -22 -15 -12 -16 -12 -5
2 7 9 10 19 6 22 -3 4 -4 7 0 7 3 0 8 -4 11 -9z m-16 -75 c-2 -1 -10 -7 -19
-14 -13 -10 -19 -10 -27 1 -8 9 -4 13 19 13 17 1 29 1 27 0z m-102 -105 c0
-12 -7 -16 -21 -13 -28 5 -28 27 0 28 13 1 21 -4 21 -15z"/>
<path d="M1429 3183 c-13 -16 -12 -17 4 -4 16 13 21 21 13 21 -2 0 -10 -8 -17
-17z"/>
<path d="M543 3164 c9 -11 15 -23 12 -26 -3 -2 2 -5 10 -5 10 0 12 4 5 12 -5
7 -6 16 -2 21 4 5 3 6 -2 2 -5 -4 -16 -2 -25 4 -12 10 -12 7 2 -8z"/>
<path d="M623 3164 c9 -11 15 -23 12 -26 -3 -2 2 -5 10 -5 10 0 12 4 5 12 -5
7 -6 16 -2 21 4 5 3 6 -2 2 -5 -4 -16 -2 -25 4 -12 10 -12 7 2 -8z"/>
<path d="M703 3164 c9 -11 15 -23 12 -26 -3 -2 2 -5 10 -5 10 0 12 4 5 12 -5
7 -6 16 -2 21 4 5 3 6 -2 2 -5 -4 -16 -2 -25 4 -12 10 -12 7 2 -8z"/>
<path d="M770 3176 c0 -2 8 -10 18 -17 15 -13 16 -12 3 4 -13 16 -21 21 -21
13z"/>
<path d="M924 3162 c23 -26 23 -26 23 -7 0 8 -3 13 -5 10 -3 -3 -12 1 -21 7
-10 8 -9 4 3 -10z"/>
<path d="M1171 3174 c4 -21 -2 -26 -18 -13 -16 12 -16 12 -6 -1 6 -8 12 -18
12 -22 1 -12 16 -10 16 2 0 6 5 10 10 9 6 -1 9 -4 8 -8 -1 -4 5 -8 12 -8 10 0
12 4 5 12 -5 7 -6 16 -2 21 4 5 3 6 -2 2 -5 -4 -15 -3 -23 4 -8 6 -13 7 -12 2z"/>
<path d="M476 3161 c-3 -5 2 -15 12 -22 15 -12 16 -12 5 2 -7 9 -10 19 -6 22
3 4 4 7 0 7 -3 0 -8 -4 -11 -9z"/>
<path d="M509 3157 c6 -8 9 -16 6 -19 -3 -2 2 -5 10 -5 13 0 13 3 -2 19 -19
21 -31 25 -14 5z"/>
<path d="M589 3157 c6 -8 9 -16 6 -19 -3 -2 2 -5 10 -5 13 0 13 3 -2 19 -19
21 -31 25 -14 5z"/>
<path d="M669 3157 c6 -8 9 -16 6 -19 -3 -2 2 -5 10 -5 13 0 13 3 -2 19 -19
21 -31 25 -14 5z"/>
<path d="M749 3157 c6 -8 9 -16 6 -19 -3 -2 2 -5 10 -5 13 0 13 3 -2 19 -19
21 -31 25 -14 5z"/>
<path d="M993 3146 l-18 -21 24 20 c13 11 25 19 28 17 3 -2 7 -2 9 1 2 2 -3 4
-11 4 -8 0 -23 -10 -32 -21z"/>
<path d="M1229 3157 c6 -8 9 -16 6 -19 -3 -2 2 -5 10 -5 13 0 13 3 -2 19 -19
21 -31 25 -14 5z"/>
<path d="M1509 3143 c-13 -16 -12 -17 4 -4 16 13 21 21 13 21 -2 0 -10 -8 -17
-17z"/>
<path d="M800 3140 c-9 -6 -10 -10 -3 -10 6 0 15 5 18 10 8 12 4 12 -15 0z"/>
<path d="M908 3139 c6 -9 8 -20 4 -25 -4 -5 -3 -6 2 -2 5 4 14 3 21 -2 8 -7
12 -5 12 5 0 8 -3 13 -5 10 -3 -3 -15 3 -26 12 -15 14 -18 14 -8 2z"/>
<path d="M1019 3138 c-5 -18 -6 -38 -1 -34 7 8 12 36 6 36 -2 0 -4 -1 -5 -2z"/>
<path d="M1539 3138 c-5 -18 -6 -38 -1 -34 7 8 12 36 6 36 -2 0 -4 -1 -5 -2z"/>
<path d="M853 3116 c-3 -6 -2 -8 2 -3 5 4 18 -1 29 -10 15 -14 18 -14 8 -2 -6
9 -10 18 -7 21 3 2 -2 5 -10 5 -9 0 -19 -5 -22 -11z"/>
<path d="M677 3088 c19 -21 31 -25 14 -5 -6 8 -9 16 -6 19 3 2 -2 5 -10 5 -13
0 -13 -3 2 -19z"/>
<path d="M1040 3095 c-7 -8 -16 -13 -20 -10 -4 2 -16 -5 -26 -16 -10 -11 -13
-19 -7 -17 6 2 11 -1 12 -7 0 -5 -12 -9 -28 -8 -26 3 -28 0 -26 -27 2 -25 0
-28 -11 -19 -11 9 -14 7 -14 -9 0 -12 5 -24 10 -27 6 -3 10 -2 10 3 0 5 13 7
28 4 22 -3 27 -9 27 -28 -1 -13 -5 -27 -10 -31 -4 -5 -5 -1 0 7 6 12 5 13 -5
3 -8 -7 -11 -15 -8 -18 9 -9 68 -13 74 -4 3 5 0 9 -7 9 -7 0 -5 8 7 22 10 12
14 19 8 15 -6 -3 -11 0 -11 8 0 8 5 13 10 12 12 -3 18 31 7 38 -5 3 -7 18 -4
33 3 20 2 23 -5 12 -9 -13 -12 -13 -23 -1 -11 12 -10 13 2 6 12 -6 13 -5 3 5
-10 11 -9 18 9 37 12 13 19 23 16 23 -3 0 -11 -7 -18 -15z m-23 -30 c0 -8 -4
-12 -9 -9 -5 3 -6 10 -3 15 9 13 12 11 12 -6z m-22 -47 c3 -3 -1 -11 -10 -18
-8 -7 -15 -11 -16 -9 -6 31 -5 37 7 35 7 -1 16 -5 19 -8z"/>
<path d="M525 3080 c-10 -11 -15 -20 -10 -20 4 0 1 -7 -6 -16 -29 -35 -7 -58
24 -24 10 12 9 12 -4 2 -23 -17 -32 -2 -12 20 9 10 12 18 8 18 -4 0 0 9 10 20
10 11 16 20 13 20 -3 0 -13 -9 -23 -20z"/>
<path d="M850 3096 c0 -2 8 -10 18 -17 15 -13 16 -12 3 4 -13 16 -21 21 -21
13z"/>
<path d="M910 3097 c0 -2 6 -10 14 -16 11 -9 16 -9 22 1 4 7 4 10 -1 6 -4 -4
-14 -3 -22 3 -7 6 -13 9 -13 6z"/>
<path d="M3629 3083 c-13 -16 -12 -17 4 -4 16 13 21 21 13 21 -2 0 -10 -8 -17
-17z"/>
<path d="M763 3078 c-11 -19 -13 -39 -1 -32 5 3 7 9 4 12 -3 3 -1 11 5 19 6 7
9 13 6 13 -3 0 -9 -6 -14 -12z"/>
<path d="M829 3077 c6 -8 9 -16 6 -19 -3 -2 2 -5 10 -5 13 0 13 3 -2 19 -19
21 -31 25 -14 5z"/>
<path d="M545 3059 c-3 -4 2 -6 10 -5 21 3 28 13 10 13 -9 0 -18 -4 -20 -8z"/>
<path d="M786 3062 c-2 -4 4 -8 14 -8 10 0 16 4 14 8 -3 4 -9 8 -14 8 -5 0
-11 -4 -14 -8z"/>
<path d="M910 3058 c13 -15 13 -31 0 -23 -6 4 -7 -1 -3 -12 6 -16 5 -17 -12
-3 -19 16 -99 25 -90 10 3 -5 1 -11 -5 -15 -5 -3 -7 -17 -4 -31 4 -15 2 -24
-6 -24 -6 0 -8 -5 -4 -12 5 -8 1 -8 -12 2 -10 8 -16 10 -12 6 4 -5 3 -16 -4
-23 -9 -11 -9 -16 1 -23 8 -4 10 -13 7 -19 -4 -6 -3 -11 3 -11 5 0 13 5 16 10
4 6 11 7 17 4 24 -15 76 -14 81 1 4 8 2 17 -3 20 -5 3 -5 18 -1 33 4 15 7 32
6 37 -1 18 -16 35 -26 29 -5 -3 -7 -10 -3 -15 3 -5 0 -8 -8 -7 -9 2 -13 -8
-12 -34 0 -20 -3 -35 -7 -33 -3 3 -6 15 -5 27 1 13 -5 31 -13 41 -13 16 -13
18 -1 15 8 -2 14 2 13 8 -2 12 46 12 65 0 6 -3 9 -24 7 -46 -2 -27 2 -43 13
-52 13 -11 14 -11 7 2 -4 8 -5 12 0 8 4 -4 15 -2 24 5 14 11 15 10 1 -7 -12
-16 -12 -18 -1 -11 9 5 12 4 7 -3 -3 -6 -15 -9 -25 -7 -11 2 -21 -2 -24 -8 -3
-7 5 -12 19 -12 13 0 24 4 24 8 0 5 4 6 9 3 5 -4 8 2 7 11 -2 10 4 23 13 30
13 10 12 11 -12 9 -15 -2 -30 1 -33 6 -3 4 -10 6 -15 3 -5 -4 -7 4 -5 17 3 13
5 27 5 32 1 4 7 6 15 3 19 -8 12 32 -9 50 -8 7 -10 8 -5 1z m14 -116 c3 -5 -1
-9 -9 -9 -8 0 -12 4 -9 9 3 4 7 8 9 8 2 0 6 -4 9 -8z m-106 -28 c9 -10 6 -12
-14 -10 -34 4 -51 22 -21 22 13 0 29 -6 35 -12z"/>
<path d="M3616 3047 c3 -10 9 -15 12 -12 3 3 0 11 -7 18 -10 9 -11 8 -5 -6z"/>
<path d="M591 3047 c2 -1 13 -9 24 -17 19 -14 19 -14 6 3 -7 9 -18 17 -24 17
-6 0 -8 -1 -6 -3z"/>
<path d="M594 3012 c11 -12 21 -20 24 -17 3 3 12 -1 21 -8 14 -11 14 -10 2 6
-8 9 -16 15 -19 12 -3 -3 -15 3 -26 12 -21 18 -21 18 -2 -5z"/>
<path d="M684 3002 c23 -26 23 -26 23 -7 0 8 -3 13 -5 10 -3 -3 -12 1 -21 7
-10 8 -9 4 3 -10z"/>
<path d="M829 3003 c-13 -16 -12 -17 4 -4 9 7 17 15 17 17 0 8 -8 3 -21 -13z"/>
<path d="M1485 3000 c-10 -11 -14 -20 -10 -20 4 0 0 -10 -11 -22 -12 -14 -13
-18 -3 -10 9 6 18 9 21 7 3 -3 5 5 4 17 0 13 4 22 10 21 6 -1 11 5 11 13 0 18
0 18 -22 -6z"/>
<path d="M671 2976 c13 -18 12 -19 -8 -14 -21 6 -39 -13 -25 -26 3 -4 7 -13 8
-22 2 -12 -1 -13 -12 -3 -7 6 -11 15 -8 20 3 5 0 9 -7 9 -9 0 -9 3 0 14 9 11
9 16 0 22 -7 4 -9 3 -5 -4 8 -14 -15 -21 -35 -11 -23 11 -61 -1 -55 -17 3 -8
0 -14 -7 -14 -7 0 -8 -3 -2 -8 6 -4 10 -14 10 -22 0 -12 14 -15 67 -15 67 0
75 4 69 38 -1 5 3 6 8 3 5 -4 12 -2 16 4 3 5 0 10 -7 10 -9 0 -9 3 2 10 13 8
12 12 -4 27 -19 17 -19 17 -5 -1z m-97 -53 c-3 -36 -2 -35 -14 -28 -7 4 -7 11
-2 18 5 7 8 20 7 30 -2 9 0 15 4 12 5 -2 7 -17 5 -32z"/>
<path d="M697 2957 c-3 -8 0 -20 6 -27 9 -10 9 -11 0 -6 -12 6 -26 -9 -29 -32
-2 -8 6 -12 19 -10 17 2 22 10 23 35 1 38 -10 62 -19 40z"/>
<path d="M1260 2951 c0 -27 15 -34 30 -16 11 13 10 14 -5 9 -12 -5 -16 -4 -11
4 3 6 2 13 -4 17 -5 3 -10 -3 -10 -14z"/>
<path d="M1129 2954 c-1 -5 -1 -13 0 -18 1 -5 -5 -3 -14 4 -13 11 -15 10 -10
-3 4 -8 1 -18 -6 -23 -8 -5 -10 -3 -4 5 6 10 3 11 -14 2 -24 -13 -28 -31 -7
-31 8 0 21 -3 30 -6 12 -4 16 0 16 16 0 12 4 18 10 15 6 -4 8 -10 5 -15 -3 -4
2 -10 10 -14 8 -3 17 0 21 6 4 7 3 8 -4 4 -12 -7 -13 -4 -16 33 -1 20 -15 41
-17 25z"/>
<path d="M486 2914 c-9 -23 -8 -24 12 -23 9 0 12 3 5 5 -7 3 -9 12 -6 20 3 8
3 14 0 14 -3 0 -8 -7 -11 -16z"/>
<path d="M1290 2899 c0 -5 5 -7 10 -4 6 3 10 8 10 11 0 2 -4 4 -10 4 -5 0 -10
-5 -10 -11z"/>
<path d="M481 2301 c-11 -7 -10 -10 6 -15 10 -3 19 -15 19 -26 0 -14 -5 -18
-16 -15 -11 3 -17 0 -17 -10 0 -10 6 -14 16 -10 14 4 14 4 1 -7 -8 -7 -15 -25
-16 -39 0 -25 3 -26 40 -25 28 2 41 7 42 17 1 22 -16 38 -34 32 -15 -4 -15 -3
-2 6 13 9 13 11 0 11 -9 0 -11 3 -4 8 12 8 14 62 1 62 -4 0 -5 5 -2 10 8 12
-15 13 -34 1z"/>
<path d="M535 2265 c2 -54 16 -73 35 -50 11 14 11 16 -1 13 -10 -2 -14 8 -14
36 0 22 -5 41 -11 43 -8 3 -11 -12 -9 -42z"/>
<path d="M605 2300 c5 -9 -6 -14 -26 -12 -3 1 -6 -6 -6 -13 0 -12 3 -12 15 -3
23 19 12 -52 -12 -81 -12 -14 -15 -21 -6 -16 13 8 13 7 0 -10 -18 -22 -19 -19
5 -45 11 -12 19 -25 17 -28 -2 -4 1 -8 6 -10 5 -1 8 15 7 37 -2 36 0 39 21 35
23 -4 26 8 10 34 -6 10 -3 13 10 10 18 -3 25 -42 11 -64 -3 -6 0 -11 8 -11 8
0 12 3 10 7 -3 4 4 15 14 24 14 13 20 14 28 4 11 -15 11 -38 1 -38 -5 0 -11 0
-14 0 -4 0 -1 8 7 18 12 16 12 16 -6 0 -15 -14 -16 -19 -5 -33 7 -9 9 -15 4
-14 -5 1 -23 -2 -41 -6 -24 -5 -31 -12 -28 -26 2 -11 0 -17 -6 -14 -5 4 -10 1
-10 -4 -1 -6 -2 -17 -3 -23 0 -7 -10 -13 -21 -13 -15 0 -20 7 -20 25 -1 14 -6
24 -12 23 -17 -3 -36 24 -23 32 5 3 10 1 10 -4 0 -6 5 -11 11 -11 8 0 8 4 0
13 -8 10 -7 17 2 26 9 10 9 12 -3 9 -8 -2 -14 3 -12 10 1 8 -2 11 -7 8 -5 -4
-12 -2 -15 3 -7 11 -42 8 -38 -4 2 -4 -2 -12 -10 -16 -8 -5 -8 -9 -2 -9 12 0
14 -41 3 -50 -4 -3 -1 -11 7 -18 10 -9 14 -9 14 -1 0 6 8 3 18 -8 9 -10 14
-14 10 -9 -5 6 -8 13 -8 16 0 8 30 9 31 1 0 -3 2 -14 4 -23 4 -22 -34 -25 -54
-5 -11 10 -13 10 -7 0 5 -8 1 -13 -9 -13 -11 0 -15 -7 -13 -22 l3 -23 437 -1
438 0 157 160 c87 89 164 169 172 179 13 17 9 18 -77 16 -79 -1 -90 -3 -84
-18 5 -14 4 -15 -14 -1 -18 14 -18 14 -4 -4 29 -37 22 -47 -30 -45 -27 2 -47
7 -43 11 3 5 12 7 20 3 13 -4 14 -3 3 10 -7 8 -9 15 -5 15 4 0 2 6 -4 14 -6 7
-21 12 -34 11 -31 -3 -31 -3 -18 -19 10 -12 9 -14 -6 -12 -10 2 -17 10 -15 20
2 13 -5 16 -43 14 -25 0 -46 -5 -46 -10 -1 -4 -2 -16 -3 -26 0 -11 -8 -27 -16
-38 -14 -18 -14 -18 3 -5 15 12 17 11 18 -3 2 -25 4 -30 13 -45 6 -10 5 -12
-2 -7 -7 4 -12 2 -12 -3 0 -6 -18 -11 -39 -11 -42 0 -48 12 -21 46 14 17 13
18 -1 7 -9 -7 -20 -9 -24 -5 -5 4 -5 1 -1 -6 8 -13 -24 -29 -71 -34 -15 -2
-31 -7 -34 -12 -10 -13 -31 3 -22 17 4 7 -2 5 -12 -3 -17 -14 -18 -13 -13 8 4
12 2 20 -3 16 -5 -3 -9 0 -9 6 0 6 -4 9 -9 6 -14 -9 -7 -51 9 -51 8 0 16 -6
16 -12 1 -7 2 -15 3 -18 0 -3 12 2 27 11 19 13 28 14 37 5 9 -10 8 -11 -7 -5
-13 5 -17 4 -12 -4 5 -8 1 -10 -11 -5 -15 6 -16 4 -5 -9 15 -19 3 -30 -36 -36
-17 -2 -22 1 -16 10 12 19 13 37 3 44 -5 3 -9 0 -9 -7 0 -7 -10 -9 -24 -7 -16
3 -23 0 -22 -8 3 -18 16 -31 16 -16 0 7 4 12 8 12 5 0 9 -6 9 -13 0 -9 -25
-12 -94 -12 -77 0 -93 3 -92 15 3 29 -1 32 -18 19 -15 -12 -16 -12 -8 1 15 24
14 38 -1 44 -14 5 -17 -1 -17 -37 0 -17 -1 -17 -18 -1 -22 20 -24 25 -8 22 6
-2 13 2 16 8 2 7 -6 11 -19 10 -17 -1 -23 4 -23 22 0 12 -4 21 -10 20 -5 -2
-9 -6 -7 -10 1 -5 -3 -8 -9 -8 -6 0 -9 7 -6 15 4 8 2 17 -4 20 -5 4 -8 1 -7
-6 2 -6 -3 -14 -11 -17 -9 -3 -11 0 -6 8 6 10 4 12 -8 7 -11 -4 -15 -1 -12 14
3 17 -5 23 -27 20 -3 0 -5 13 -3 29 2 17 -1 30 -6 30 -6 0 -7 -4 -4 -10z m743
-77 c0 -5 2 -16 6 -25 4 -10 6 -23 3 -30 -3 -7 -6 -3 -6 9 -1 12 -6 25 -11 28
-6 4 -8 11 -5 16 7 11 16 12 13 2z m-21 -38 c0 -8 -4 -12 -9 -9 -5 3 -6 10 -3
15 9 13 12 11 12 -6z m-262 -34 c3 -5 2 -12 -3 -15 -5 -3 -9 1 -9 9 0 17 3 19
12 6z m-531 -30 c15 -12 15 -16 1 -31 -10 -11 -11 -20 -5 -26 7 -7 2 -10 -13
-10 -20 0 -23 5 -23 42 0 43 10 50 40 25z"/>
<path d="M509 2129 c-6 -24 -4 -61 5 -66 6 -3 8 -2 3 2 -4 5 0 16 8 25 14 15
14 18 0 30 -8 7 -15 11 -16 9z m16 -18 c3 -5 2 -12 -3 -15 -5 -3 -9 1 -9 9 0
17 3 19 12 6z"/>
<path d="M630 2306 c0 -2 7 -7 16 -10 8 -3 12 -2 9 4 -6 10 -25 14 -25 6z"/>
<path d="M669 2294 c-7 -9 -14 -27 -15 -39 -1 -24 14 -24 46 -1 13 10 13 9 1
-6 -7 -10 -11 -19 -7 -19 3 -1 9 -2 14 -3 19 -4 30 -18 27 -35 -2 -14 3 -17
23 -16 32 2 65 -12 57 -25 -3 -5 5 -16 17 -24 15 -11 18 -16 8 -16 -13 0 -13
-1 0 -9 25 -17 34 1 11 21 -13 10 -17 18 -10 18 8 0 6 5 -6 14 -28 20 -28 44
1 42 13 0 24 -6 24 -13 0 -7 -7 -10 -17 -7 -14 5 -15 4 -4 -4 12 -8 20 -9 50
-3 2 1 -2 7 -8 15 -9 11 -7 13 10 12 24 -1 35 29 16 41 -24 14 -47 10 -47 -9
0 -12 -4 -16 -12 -12 -7 4 -8 3 -4 -4 4 -7 3 -12 -1 -12 -16 0 -48 28 -48 42
0 7 -6 13 -12 13 -7 0 -12 5 -10 10 1 6 5 9 9 8 4 -2 5 4 2 12 -4 8 -11 15
-17 15 -6 0 -7 -3 -4 -7 4 -3 -1 -15 -10 -26 -10 -11 -13 -17 -6 -14 6 4 14 3
18 -3 3 -5 3 -10 -2 -11 -4 0 -15 -2 -24 -4 -13 -2 -17 5 -15 33 1 29 -3 36
-20 38 -12 2 -28 -4 -35 -12z m116 -64 c-3 -13 2 -20 13 -21 12 0 13 -2 3 -6
-11 -4 -11 -7 0 -14 8 -5 0 -7 -21 -5 -19 1 -34 7 -33 12 1 5 -4 15 -10 23 -8
10 -8 13 -1 8 6 -3 20 0 30 8 24 18 24 19 19 -5z"/>
<path d="M764 2222 c-9 -5 -8 -10 1 -19 11 -10 13 -9 12 7 -1 11 -1 20 -2 20
0 0 -5 -4 -11 -8z"/>
<path d="M842 2299 c2 -8 -3 -13 -11 -11 -11 2 -12 0 -4 -10 6 -7 9 -21 8 -30
-4 -21 10 -24 18 -5 5 14 29 15 59 3 9 -4 23 -9 31 -10 8 -1 22 -8 30 -14 9
-8 18 -9 21 -3 4 5 2 12 -4 16 -5 3 -10 3 -10 -2 0 -4 -4 -2 -9 6 -5 8 -8 23
-6 33 2 10 -2 18 -8 18 -7 0 -6 4 3 10 12 8 9 10 -12 7 -15 -1 -30 -6 -34 -10
-4 -4 -14 -1 -22 6 -12 10 -16 9 -20 -1 -3 -10 -7 -10 -19 -1 -11 10 -14 10
-11 -2z m71 -17 c3 7 4 3 4 -9 -1 -12 -6 -19 -12 -15 -14 9 -38 9 -52 -1 -8
-5 -11 -2 -9 10 2 10 8 18 14 18 6 0 14 4 18 8 5 4 14 1 20 -8 9 -12 13 -13
17 -3z"/>
<path d="M875 2280 c-3 -5 -1 -10 4 -10 6 0 11 5 11 10 0 6 -2 10 -4 10 -3 0
-8 -4 -11 -10z"/>
<path d="M995 2300 c-3 -5 -1 -10 5 -10 6 0 8 -5 5 -10 -4 -6 -10 -8 -14 -6
-4 3 -8 -1 -8 -9 0 -8 2 -13 5 -10 2 2 13 -6 24 -18 11 -12 17 -16 13 -9 -6
11 7 17 30 12 6 -1 7 2 3 6 -10 10 12 35 24 28 5 -3 5 -11 -2 -18 -8 -10 1
-13 42 -12 39 0 52 -3 50 -12 -1 -8 2 -11 8 -7 6 3 7 12 3 18 -5 8 -2 8 9 0
13 -11 15 -8 14 27 0 22 -5 40 -10 40 -4 0 -5 -8 -2 -17 6 -16 6 -16 -11 0
-10 9 -27 14 -38 12 -11 -2 -24 -4 -30 -4 -7 -1 -7 -4 0 -9 18 -13 15 -30 -6
-35 -16 -4 -18 -3 -9 8 8 9 8 15 0 20 -6 3 -8 10 -6 14 3 4 -1 8 -9 8 -8 0
-13 -3 -10 -5 10 -11 -17 -30 -35 -25 -11 3 -20 0 -20 -6 0 -6 -5 -11 -12 -11
-9 0 -9 3 0 12 14 14 16 38 3 38 -6 0 -13 -4 -16 -10z m182 -24 c17 -20 17
-20 1 -7 -16 12 -22 9 -20 -10 1 -3 -5 -6 -12 -6 -6 0 -12 10 -12 22 0 27 21
28 43 1z"/>
<path d="M1242 2301 c-11 -7 -11 -9 0 -14 9 -3 15 1 15 9 0 8 -1 14 -1 14 -1
0 -7 -4 -14 -9z"/>
<path d="M3562 2291 c4 -32 33 -50 50 -33 11 11 10 12 -4 7 -23 -9 -23 8 -1
26 14 12 16 12 8 0 -6 -10 -4 -12 5 -6 8 5 11 4 7 -2 -4 -7 5 -10 23 -8 23 2
30 -2 30 -15 0 -14 -8 -18 -35 -16 -19 0 -35 -3 -34 -9 0 -5 60 -71 134 -146
l135 -136 422 1 423 1 3 177 2 177 -524 0 c-324 0 -528 -4 -531 -9 -4 -6 -11
-10 -16 -10 -6 0 -8 3 -6 8 3 4 -12 8 -34 8 -22 1 -39 -4 -39 -10 0 -6 -5 -4
-11 4 -8 12 -9 10 -7 -9z m195 -66 c0 -6 -6 -12 -12 -12 -6 0 -12 6 -12 12 0
6 6 12 12 12 6 0 12 -6 12 -12z m-53 -23 c3 -5 -1 -9 -9 -9 -8 0 -12 4 -9 9 3
4 7 8 9 8 2 0 6 -4 9 -8z m32 -28 c1 -9 0 -13 -4 -10 -3 4 -7 14 -8 22 -1 9 0
13 4 10 3 -4 7 -14 8 -22z"/>
<path d="M622 2278 c6 -18 25 -21 25 -3 0 8 -7 15 -14 15 -8 0 -13 -5 -11 -12z"/>
<path d="M1469 2277 c6 -8 9 -16 6 -19 -3 -2 2 -5 10 -5 13 0 13 3 -2 19 -19
21 -31 25 -14 5z"/>
<path d="M470 2270 c0 -5 5 -10 11 -10 5 0 7 5 4 10 -3 6 -8 10 -11 10 -2 0
-4 -4 -4 -10z"/>
<path d="M1234 2248 l-19 -23 23 19 c21 18 27 26 19 26 -2 0 -12 -10 -23 -22z"/>
<path d="M3626 2261 c-3 -4 6 -7 19 -7 14 0 22 2 19 5 -8 8 -34 10 -38 2z"/>
<path d="M924 2219 c-3 -5 -2 -8 3 -7 4 2 9 -1 11 -7 1 -5 -2 -11 -8 -11 -5
-1 -13 -3 -17 -4 -5 -1 -10 -2 -13 -2 -3 0 -7 -8 -7 -19 -1 -10 3 -19 8 -19 6
0 8 -4 4 -9 -3 -5 0 -13 6 -17 8 -5 9 -3 4 6 -6 10 -3 12 11 7 18 -7 18 -6 2
6 -10 8 -14 18 -10 22 4 5 1 5 -7 0 -9 -5 -12 -4 -7 3 5 9 14 7 32 -4 25 -17
27 -15 27 28 0 10 4 15 11 11 6 -3 6 0 -1 7 -16 17 -41 21 -49 9z"/>
<path d="M1075 2222 c3 -3 -1 -12 -7 -21 -8 -10 -4 -9 10 3 26 23 26 23 7 23
-8 0 -13 -3 -10 -5z"/>
<path d="M1115 2222 c3 -3 -3 -15 -12 -26 -13 -15 -10 -14 10 3 32 29 31 28
12 28 -8 0 -13 -3 -10 -5z"/>
<path d="M990 2200 c-8 -5 -15 -20 -16 -34 -1 -19 2 -23 11 -16 6 5 14 8 16 6
2 -3 4 9 4 25 1 16 1 29 0 29 0 0 -7 -4 -15 -10z"/>
<path d="M1237 2192 c-15 -16 -15 -19 -2 -19 8 0 13 3 10 5 -3 3 0 11 6 19 17
20 5 16 -14 -5z"/>
<path d="M619 2148 c-5 -16 -4 -60 1 -63 4 -2 16 2 26 10 16 12 16 14 2 9 -13
-4 -16 -1 -13 15 2 11 0 23 -6 26 -5 4 -9 5 -10 3z"/>
<path d="M860 2141 c0 -10 19 -25 25 -20 1 2 -3 10 -11 17 -8 7 -14 8 -14 3z"/>
<path d="M945 2110 c-4 -6 -12 -7 -18 -4 -7 4 -9 3 -4 -1 4 -5 18 -10 30 -11
12 -2 16 0 9 2 -6 3 -10 10 -6 15 3 5 3 9 0 9 -3 0 -8 -5 -11 -10z"/>
<path d="M1043 2105 c0 -7 6 -12 14 -11 19 3 21 19 2 21 -9 2 -16 -3 -16 -10z"/>
<path d="M565 2101 c-3 -5 -1 -12 5 -16 6 -4 8 -10 5 -15 -3 -4 2 -13 10 -20
11 -9 12 -16 5 -25 -7 -8 -5 -12 5 -12 8 0 13 3 10 5 -3 3 2 16 10 29 9 13 11
23 5 23 -5 0 -10 -6 -10 -12 0 -7 -8 -1 -17 12 -10 14 -17 28 -15 33 3 10 -6
9 -13 -2z"/>
</g>
</svg>
